<svg width="74" height="74" viewBox="0 0 74 74" fill="none" xmlns="http://www.w3.org/2000/svg">
<path d="M41.1343 26.2908C39.6486 25.0848 37.4619 25.2972 36.2565 26.7831C35.0352 28.2709 35.252 30.4534 36.7407 31.6675C38.3753 33.0044 39.3147 34.9469 39.3147 36.9964C39.3147 39.0474 38.3753 40.9884 36.7407 42.3254C35.2549 43.5403 35.0381 45.7263 36.2529 47.2077C36.9349 48.0478 37.9323 48.4814 38.9353 48.4814C39.7077 48.4814 40.489 48.2239 41.1307 47.7C44.3869 45.0348 46.2528 41.1382 46.2528 36.9973C46.2528 32.8564 44.3862 28.9647 41.1343 26.2908ZM49.8783 15.4797C48.4012 14.2737 46.2159 14.4814 44.9961 15.9629C43.7812 17.4443 43.998 19.6297 45.4794 20.8452C50.376 24.8604 53.1842 30.6995 53.1842 36.874C53.1842 43.0485 50.3746 48.8833 45.4794 52.9028C43.998 54.1177 43.7812 56.3037 44.9961 57.7851C45.3212 58.1823 45.7305 58.5022 46.1945 58.7217C46.6584 58.9412 47.1653 59.0548 47.6786 59.0543C48.4554 59.0543 49.2322 58.7969 49.8783 58.2683C56.3965 53.0585 60.1253 45.2536 60.1253 36.8707C60.1253 28.4877 56.3965 20.9431 49.8783 15.4797ZM58.7378 4.79144C57.2608 3.58545 55.0755 3.79777 53.8557 5.27476C52.6408 6.75623 52.8576 8.94158 54.339 10.1571C62.4233 16.7805 67.0627 26.5654 67.0627 36.8707C67.0627 47.1759 62.4248 57.0909 54.3355 63.7106C52.8541 64.9255 52.6373 67.1115 53.8522 68.5929C54.1773 68.9901 54.5866 69.31 55.0506 69.5295C55.5145 69.749 56.0214 69.8626 56.5347 69.8621C57.3115 69.8621 58.0883 69.6047 58.7344 69.0761C68.4357 61.2535 74 49.5174 74 36.8707C74 24.224 68.4357 12.7408 58.7378 4.79144ZM21.8687 25.2357C23.2851 25.3803 24.8749 24.4986 25.4386 23.0677L30.3164 10.872C30.9306 9.30089 30.2224 7.38582 28.9361 6.62846L19.1848 0.533477C17.8075 -0.33069 16.0298 -0.12921 14.8736 1.02345C-4.95858 20.8564 -4.95713 53.1452 14.8736 72.9752C16.0272 74.1292 17.7959 74.3308 19.1733 73.4669L28.926 67.369C30.3388 66.4868 30.935 64.6995 30.3132 63.1342L25.4386 50.9483C24.8684 49.5083 23.3949 48.6198 21.8644 48.7846L14.1697 49.5526C11.4034 41.4379 11.4034 32.578 14.174 24.4697L21.8687 25.2357Z" fill="white"/>
</svg>
