<svg width="47" height="92" viewBox="0 0 47 92" fill="none" xmlns="http://www.w3.org/2000/svg">
<path d="M8.71 6.74C8.71 4.27 7.69167 3.035 5.655 3.035C4.875 3.035 4.29 3.20833 3.9 3.555C3.51 3.85833 3.185 4.22666 2.925 4.66L0.91 3.165C1.86333 1.345 3.48833 0.434998 5.785 0.434998C7.475 0.434998 8.84 0.976664 9.88 2.06C10.92 3.1 11.44 4.66 11.44 6.74V22.405H15.08C16.64 22.405 18.1567 22.08 19.63 21.43C20.41 21.0833 21.0383 20.715 21.515 20.325C21.9917 19.8917 22.49 19.35 23.01 18.7C24.7867 16.4467 26.3467 14.0417 27.69 11.485C29.4233 8.27833 31.1133 4.94166 32.76 1.475H36.075C33.475 6.415 31.3517 10.315 29.705 13.175C28.275 15.7317 27.1267 17.6383 26.26 18.895C26.0867 19.1117 25.74 19.5883 25.22 20.325C24.7 21.0617 24.245 21.625 23.855 22.015C23.465 22.405 23.01 22.795 22.49 23.185L36.205 42.555C36.4217 42.9017 36.7467 43.205 37.18 43.465C37.6133 43.725 38.0683 43.855 38.545 43.855C39.2383 43.855 39.8883 43.595 40.495 43.075L42.64 44.57C42.12 45.1767 41.47 45.6533 40.69 46C39.91 46.3033 39.13 46.455 38.35 46.455C36.6167 46.455 35.1867 45.6533 34.06 44.05L19.89 24.03C17.7233 24.68 15.86 25.005 14.3 25.005C13.7367 25.005 13.2383 24.9833 12.805 24.94C12.3717 24.8967 11.96 24.875 11.57 24.875V45.87H8.71V6.74ZM7.41 91.585C6.19667 91.585 5.135 91.2383 4.225 90.545C3.315 89.8083 2.68667 88.8117 2.34 87.555L4.875 87.165C5.04833 87.6417 5.37333 88.075 5.85 88.465C6.32667 88.8117 6.86833 88.985 7.475 88.985C7.995 88.985 8.47167 88.8117 8.905 88.465C9.38167 88.075 9.70667 87.6633 9.88 87.23L27.105 46.02H27.625L46.41 90.935H43.485L37.18 75.79H17.42L12.35 88.27C11.9167 89.3533 11.2667 90.1767 10.4 90.74C9.53333 91.3033 8.53667 91.585 7.41 91.585ZM36.01 73.19L28.535 54.47L27.3 50.375L26.065 54.6L18.525 73.19H36.01Z" fill="black"/>
</svg>
