<svg width="73" height="70" viewBox="0 0 73 70" fill="none" xmlns="http://www.w3.org/2000/svg">
<path d="M72.75 58.5H58.25V69.375L40.125 53.0625L58.25 36.75V47.625H72.75V58.5ZM65.5 0.5H7.5C5.57718 0.5 3.73311 1.26384 2.37348 2.62348C1.01384 3.98311 0.25 5.82718 0.25 7.75V51.25C0.25 53.1728 1.01384 55.0169 2.37348 56.3765C3.73311 57.7362 5.57718 58.5 7.5 58.5H34.1438C33.2978 56.1767 32.8683 53.7225 32.875 51.25C32.8802 46.5797 34.3885 42.035 37.1769 38.2884C39.9652 34.5418 43.8855 31.7922 48.3578 30.4465C52.8301 29.1007 57.6167 29.2303 62.0096 30.816C66.4025 32.4017 70.1684 35.3593 72.75 39.2512V7.75C72.75 5.82718 71.9862 3.98311 70.6265 2.62348C69.2669 1.26384 67.4228 0.5 65.5 0.5ZM65.5 15L36.5 33.125L7.5 15V7.75L36.5 25.875L65.5 7.75V15Z" fill="white"/>
</svg>
