<svg width="166" height="148" viewBox="0 0 166 148" fill="none" xmlns="http://www.w3.org/2000/svg">
<path d="M0.21875 4.12891C0.21875 3.21094 0.501953 2.43945 1.06836 1.81445C1.6543 1.16992 2.49414 0.847656 3.58789 0.847656C4.68164 0.847656 5.51172 1.16992 6.07812 1.81445C6.66406 2.43945 6.95703 3.21094 6.95703 4.12891C6.95703 5.02734 6.66406 5.78906 6.07812 6.41406C5.51172 7.03906 4.68164 7.35156 3.58789 7.35156C2.49414 7.35156 1.6543 7.03906 1.06836 6.41406C0.501953 5.78906 0.21875 5.02734 0.21875 4.12891ZM16.0391 4.12891C16.0391 3.21094 16.3223 2.43945 16.8887 1.81445C17.4746 1.16992 18.3145 0.847656 19.4082 0.847656C20.502 0.847656 21.332 1.16992 21.8984 1.81445C22.4844 2.43945 22.7773 3.21094 22.7773 4.12891C22.7773 5.02734 22.4844 5.78906 21.8984 6.41406C21.332 7.03906 20.502 7.35156 19.4082 7.35156C18.3145 7.35156 17.4746 7.03906 16.8887 6.41406C16.3223 5.78906 16.0391 5.02734 16.0391 4.12891ZM31.8594 4.12891C31.8594 3.21094 32.1426 2.43945 32.709 1.81445C33.2949 1.16992 34.1348 0.847656 35.2285 0.847656C36.3223 0.847656 37.1523 1.16992 37.7188 1.81445C38.3047 2.43945 38.5977 3.21094 38.5977 4.12891C38.5977 5.02734 38.3047 5.78906 37.7188 6.41406C37.1523 7.03906 36.3223 7.35156 35.2285 7.35156C34.1348 7.35156 33.2949 7.03906 32.709 6.41406C32.1426 5.78906 31.8594 5.02734 31.8594 4.12891ZM47.6797 4.12891C47.6797 3.21094 47.9629 2.43945 48.5293 1.81445C49.1152 1.16992 49.9551 0.847656 51.0488 0.847656C52.1426 0.847656 52.9727 1.16992 53.5391 1.81445C54.125 2.43945 54.418 3.21094 54.418 4.12891C54.418 5.02734 54.125 5.78906 53.5391 6.41406C52.9727 7.03906 52.1426 7.35156 51.0488 7.35156C49.9551 7.35156 49.1152 7.03906 48.5293 6.41406C47.9629 5.78906 47.6797 5.02734 47.6797 4.12891ZM63.5 4.12891C63.5 3.21094 63.7832 2.43945 64.3496 1.81445C64.9355 1.16992 65.7754 0.847656 66.8691 0.847656C67.9629 0.847656 68.793 1.16992 69.3594 1.81445C69.9453 2.43945 70.2383 3.21094 70.2383 4.12891C70.2383 5.02734 69.9453 5.78906 69.3594 6.41406C68.793 7.03906 67.9629 7.35156 66.8691 7.35156C65.7754 7.35156 64.9355 7.03906 64.3496 6.41406C63.7832 5.78906 63.5 5.02734 63.5 4.12891ZM79.3203 4.12891C79.3203 3.21094 79.6035 2.43945 80.1699 1.81445C80.7559 1.16992 81.5957 0.847656 82.6895 0.847656C83.7832 0.847656 84.6133 1.16992 85.1797 1.81445C85.7656 2.43945 86.0586 3.21094 86.0586 4.12891C86.0586 5.02734 85.7656 5.78906 85.1797 6.41406C84.6133 7.03906 83.7832 7.35156 82.6895 7.35156C81.5957 7.35156 80.7559 7.03906 80.1699 6.41406C79.6035 5.78906 79.3203 5.02734 79.3203 4.12891ZM95.1406 4.12891C95.1406 3.21094 95.4238 2.43945 95.9902 1.81445C96.5762 1.16992 97.416 0.847656 98.5098 0.847656C99.6035 0.847656 100.434 1.16992 101 1.81445C101.586 2.43945 101.879 3.21094 101.879 4.12891C101.879 5.02734 101.586 5.78906 101 6.41406C100.434 7.03906 99.6035 7.35156 98.5098 7.35156C97.416 7.35156 96.5762 7.03906 95.9902 6.41406C95.4238 5.78906 95.1406 5.02734 95.1406 4.12891ZM110.961 4.12891C110.961 3.21094 111.244 2.43945 111.811 1.81445C112.396 1.16992 113.236 0.847656 114.33 0.847656C115.424 0.847656 116.254 1.16992 116.82 1.81445C117.406 2.43945 117.699 3.21094 117.699 4.12891C117.699 5.02734 117.406 5.78906 116.82 6.41406C116.254 7.03906 115.424 7.35156 114.33 7.35156C113.236 7.35156 112.396 7.03906 111.811 6.41406C111.244 5.78906 110.961 5.02734 110.961 4.12891ZM126.781 4.12891C126.781 3.21094 127.064 2.43945 127.631 1.81445C128.217 1.16992 129.057 0.847656 130.15 0.847656C131.244 0.847656 132.074 1.16992 132.641 1.81445C133.227 2.43945 133.52 3.21094 133.52 4.12891C133.52 5.02734 133.227 5.78906 132.641 6.41406C132.074 7.03906 131.244 7.35156 130.15 7.35156C129.057 7.35156 128.217 7.03906 127.631 6.41406C127.064 5.78906 126.781 5.02734 126.781 4.12891ZM142.602 4.12891C142.602 3.21094 142.885 2.43945 143.451 1.81445C144.037 1.16992 144.877 0.847656 145.971 0.847656C147.064 0.847656 147.895 1.16992 148.461 1.81445C149.047 2.43945 149.34 3.21094 149.34 4.12891C149.34 5.02734 149.047 5.78906 148.461 6.41406C147.895 7.03906 147.064 7.35156 145.971 7.35156C144.877 7.35156 144.037 7.03906 143.451 6.41406C142.885 5.78906 142.602 5.02734 142.602 4.12891ZM158.422 4.12891C158.422 3.21094 158.705 2.43945 159.271 1.81445C159.857 1.16992 160.697 0.847656 161.791 0.847656C162.885 0.847656 163.715 1.16992 164.281 1.81445C164.867 2.43945 165.16 3.21094 165.16 4.12891C165.16 5.02734 164.867 5.78906 164.281 6.41406C163.715 7.03906 162.885 7.35156 161.791 7.35156C160.697 7.35156 159.857 7.03906 159.271 6.41406C158.705 5.78906 158.422 5.02734 158.422 4.12891ZM0.21875 39.1289C0.21875 38.2109 0.501953 37.4395 1.06836 36.8145C1.6543 36.1699 2.49414 35.8477 3.58789 35.8477C4.68164 35.8477 5.51172 36.1699 6.07812 36.8145C6.66406 37.4395 6.95703 38.2109 6.95703 39.1289C6.95703 40.0273 6.66406 40.7891 6.07812 41.4141C5.51172 42.0391 4.68164 42.3516 3.58789 42.3516C2.49414 42.3516 1.6543 42.0391 1.06836 41.4141C0.501953 40.7891 0.21875 40.0273 0.21875 39.1289ZM16.0391 39.1289C16.0391 38.2109 16.3223 37.4395 16.8887 36.8145C17.4746 36.1699 18.3145 35.8477 19.4082 35.8477C20.502 35.8477 21.332 36.1699 21.8984 36.8145C22.4844 37.4395 22.7773 38.2109 22.7773 39.1289C22.7773 40.0273 22.4844 40.7891 21.8984 41.4141C21.332 42.0391 20.502 42.3516 19.4082 42.3516C18.3145 42.3516 17.4746 42.0391 16.8887 41.4141C16.3223 40.7891 16.0391 40.0273 16.0391 39.1289ZM31.8594 39.1289C31.8594 38.2109 32.1426 37.4395 32.709 36.8145C33.2949 36.1699 34.1348 35.8477 35.2285 35.8477C36.3223 35.8477 37.1523 36.1699 37.7188 36.8145C38.3047 37.4395 38.5977 38.2109 38.5977 39.1289C38.5977 40.0273 38.3047 40.7891 37.7188 41.4141C37.1523 42.0391 36.3223 42.3516 35.2285 42.3516C34.1348 42.3516 33.2949 42.0391 32.709 41.4141C32.1426 40.7891 31.8594 40.0273 31.8594 39.1289ZM47.6797 39.1289C47.6797 38.2109 47.9629 37.4395 48.5293 36.8145C49.1152 36.1699 49.9551 35.8477 51.0488 35.8477C52.1426 35.8477 52.9727 36.1699 53.5391 36.8145C54.125 37.4395 54.418 38.2109 54.418 39.1289C54.418 40.0273 54.125 40.7891 53.5391 41.4141C52.9727 42.0391 52.1426 42.3516 51.0488 42.3516C49.9551 42.3516 49.1152 42.0391 48.5293 41.4141C47.9629 40.7891 47.6797 40.0273 47.6797 39.1289ZM63.5 39.1289C63.5 38.2109 63.7832 37.4395 64.3496 36.8145C64.9355 36.1699 65.7754 35.8477 66.8691 35.8477C67.9629 35.8477 68.793 36.1699 69.3594 36.8145C69.9453 37.4395 70.2383 38.2109 70.2383 39.1289C70.2383 40.0273 69.9453 40.7891 69.3594 41.4141C68.793 42.0391 67.9629 42.3516 66.8691 42.3516C65.7754 42.3516 64.9355 42.0391 64.3496 41.4141C63.7832 40.7891 63.5 40.0273 63.5 39.1289ZM79.3203 39.1289C79.3203 38.2109 79.6035 37.4395 80.1699 36.8145C80.7559 36.1699 81.5957 35.8477 82.6895 35.8477C83.7832 35.8477 84.6133 36.1699 85.1797 36.8145C85.7656 37.4395 86.0586 38.2109 86.0586 39.1289C86.0586 40.0273 85.7656 40.7891 85.1797 41.4141C84.6133 42.0391 83.7832 42.3516 82.6895 42.3516C81.5957 42.3516 80.7559 42.0391 80.1699 41.4141C79.6035 40.7891 79.3203 40.0273 79.3203 39.1289ZM95.1406 39.1289C95.1406 38.2109 95.4238 37.4395 95.9902 36.8145C96.5762 36.1699 97.416 35.8477 98.5098 35.8477C99.6035 35.8477 100.434 36.1699 101 36.8145C101.586 37.4395 101.879 38.2109 101.879 39.1289C101.879 40.0273 101.586 40.7891 101 41.4141C100.434 42.0391 99.6035 42.3516 98.5098 42.3516C97.416 42.3516 96.5762 42.0391 95.9902 41.4141C95.4238 40.7891 95.1406 40.0273 95.1406 39.1289ZM110.961 39.1289C110.961 38.2109 111.244 37.4395 111.811 36.8145C112.396 36.1699 113.236 35.8477 114.33 35.8477C115.424 35.8477 116.254 36.1699 116.82 36.8145C117.406 37.4395 117.699 38.2109 117.699 39.1289C117.699 40.0273 117.406 40.7891 116.82 41.4141C116.254 42.0391 115.424 42.3516 114.33 42.3516C113.236 42.3516 112.396 42.0391 111.811 41.4141C111.244 40.7891 110.961 40.0273 110.961 39.1289ZM126.781 39.1289C126.781 38.2109 127.064 37.4395 127.631 36.8145C128.217 36.1699 129.057 35.8477 130.15 35.8477C131.244 35.8477 132.074 36.1699 132.641 36.8145C133.227 37.4395 133.52 38.2109 133.52 39.1289C133.52 40.0273 133.227 40.7891 132.641 41.4141C132.074 42.0391 131.244 42.3516 130.15 42.3516C129.057 42.3516 128.217 42.0391 127.631 41.4141C127.064 40.7891 126.781 40.0273 126.781 39.1289ZM142.602 39.1289C142.602 38.2109 142.885 37.4395 143.451 36.8145C144.037 36.1699 144.877 35.8477 145.971 35.8477C147.064 35.8477 147.895 36.1699 148.461 36.8145C149.047 37.4395 149.34 38.2109 149.34 39.1289C149.34 40.0273 149.047 40.7891 148.461 41.4141C147.895 42.0391 147.064 42.3516 145.971 42.3516C144.877 42.3516 144.037 42.0391 143.451 41.4141C142.885 40.7891 142.602 40.0273 142.602 39.1289ZM158.422 39.1289C158.422 38.2109 158.705 37.4395 159.271 36.8145C159.857 36.1699 160.697 35.8477 161.791 35.8477C162.885 35.8477 163.715 36.1699 164.281 36.8145C164.867 37.4395 165.16 38.2109 165.16 39.1289C165.16 40.0273 164.867 40.7891 164.281 41.4141C163.715 42.0391 162.885 42.3516 161.791 42.3516C160.697 42.3516 159.857 42.0391 159.271 41.4141C158.705 40.7891 158.422 40.0273 158.422 39.1289ZM0.21875 74.1289C0.21875 73.2109 0.501953 72.4395 1.06836 71.8145C1.6543 71.1699 2.49414 70.8477 3.58789 70.8477C4.68164 70.8477 5.51172 71.1699 6.07812 71.8145C6.66406 72.4395 6.95703 73.2109 6.95703 74.1289C6.95703 75.0273 6.66406 75.7891 6.07812 76.4141C5.51172 77.0391 4.68164 77.3516 3.58789 77.3516C2.49414 77.3516 1.6543 77.0391 1.06836 76.4141C0.501953 75.7891 0.21875 75.0273 0.21875 74.1289ZM16.0391 74.1289C16.0391 73.2109 16.3223 72.4395 16.8887 71.8145C17.4746 71.1699 18.3145 70.8477 19.4082 70.8477C20.502 70.8477 21.332 71.1699 21.8984 71.8145C22.4844 72.4395 22.7773 73.2109 22.7773 74.1289C22.7773 75.0273 22.4844 75.7891 21.8984 76.4141C21.332 77.0391 20.502 77.3516 19.4082 77.3516C18.3145 77.3516 17.4746 77.0391 16.8887 76.4141C16.3223 75.7891 16.0391 75.0273 16.0391 74.1289ZM31.8594 74.1289C31.8594 73.2109 32.1426 72.4395 32.709 71.8145C33.2949 71.1699 34.1348 70.8477 35.2285 70.8477C36.3223 70.8477 37.1523 71.1699 37.7188 71.8145C38.3047 72.4395 38.5977 73.2109 38.5977 74.1289C38.5977 75.0273 38.3047 75.7891 37.7188 76.4141C37.1523 77.0391 36.3223 77.3516 35.2285 77.3516C34.1348 77.3516 33.2949 77.0391 32.709 76.4141C32.1426 75.7891 31.8594 75.0273 31.8594 74.1289ZM47.6797 74.1289C47.6797 73.2109 47.9629 72.4395 48.5293 71.8145C49.1152 71.1699 49.9551 70.8477 51.0488 70.8477C52.1426 70.8477 52.9727 71.1699 53.5391 71.8145C54.125 72.4395 54.418 73.2109 54.418 74.1289C54.418 75.0273 54.125 75.7891 53.5391 76.4141C52.9727 77.0391 52.1426 77.3516 51.0488 77.3516C49.9551 77.3516 49.1152 77.0391 48.5293 76.4141C47.9629 75.7891 47.6797 75.0273 47.6797 74.1289ZM63.5 74.1289C63.5 73.2109 63.7832 72.4395 64.3496 71.8145C64.9355 71.1699 65.7754 70.8477 66.8691 70.8477C67.9629 70.8477 68.793 71.1699 69.3594 71.8145C69.9453 72.4395 70.2383 73.2109 70.2383 74.1289C70.2383 75.0273 69.9453 75.7891 69.3594 76.4141C68.793 77.0391 67.9629 77.3516 66.8691 77.3516C65.7754 77.3516 64.9355 77.0391 64.3496 76.4141C63.7832 75.7891 63.5 75.0273 63.5 74.1289ZM79.3203 74.1289C79.3203 73.2109 79.6035 72.4395 80.1699 71.8145C80.7559 71.1699 81.5957 70.8477 82.6895 70.8477C83.7832 70.8477 84.6133 71.1699 85.1797 71.8145C85.7656 72.4395 86.0586 73.2109 86.0586 74.1289C86.0586 75.0273 85.7656 75.7891 85.1797 76.4141C84.6133 77.0391 83.7832 77.3516 82.6895 77.3516C81.5957 77.3516 80.7559 77.0391 80.1699 76.4141C79.6035 75.7891 79.3203 75.0273 79.3203 74.1289ZM95.1406 74.1289C95.1406 73.2109 95.4238 72.4395 95.9902 71.8145C96.5762 71.1699 97.416 70.8477 98.5098 70.8477C99.6035 70.8477 100.434 71.1699 101 71.8145C101.586 72.4395 101.879 73.2109 101.879 74.1289C101.879 75.0273 101.586 75.7891 101 76.4141C100.434 77.0391 99.6035 77.3516 98.5098 77.3516C97.416 77.3516 96.5762 77.0391 95.9902 76.4141C95.4238 75.7891 95.1406 75.0273 95.1406 74.1289ZM110.961 74.1289C110.961 73.2109 111.244 72.4395 111.811 71.8145C112.396 71.1699 113.236 70.8477 114.33 70.8477C115.424 70.8477 116.254 71.1699 116.82 71.8145C117.406 72.4395 117.699 73.2109 117.699 74.1289C117.699 75.0273 117.406 75.7891 116.82 76.4141C116.254 77.0391 115.424 77.3516 114.33 77.3516C113.236 77.3516 112.396 77.0391 111.811 76.4141C111.244 75.7891 110.961 75.0273 110.961 74.1289ZM126.781 74.1289C126.781 73.2109 127.064 72.4395 127.631 71.8145C128.217 71.1699 129.057 70.8477 130.15 70.8477C131.244 70.8477 132.074 71.1699 132.641 71.8145C133.227 72.4395 133.52 73.2109 133.52 74.1289C133.52 75.0273 133.227 75.7891 132.641 76.4141C132.074 77.0391 131.244 77.3516 130.15 77.3516C129.057 77.3516 128.217 77.0391 127.631 76.4141C127.064 75.7891 126.781 75.0273 126.781 74.1289ZM142.602 74.1289C142.602 73.2109 142.885 72.4395 143.451 71.8145C144.037 71.1699 144.877 70.8477 145.971 70.8477C147.064 70.8477 147.895 71.1699 148.461 71.8145C149.047 72.4395 149.34 73.2109 149.34 74.1289C149.34 75.0273 149.047 75.7891 148.461 76.4141C147.895 77.0391 147.064 77.3516 145.971 77.3516C144.877 77.3516 144.037 77.0391 143.451 76.4141C142.885 75.7891 142.602 75.0273 142.602 74.1289ZM158.422 74.1289C158.422 73.2109 158.705 72.4395 159.271 71.8145C159.857 71.1699 160.697 70.8477 161.791 70.8477C162.885 70.8477 163.715 71.1699 164.281 71.8145C164.867 72.4395 165.16 73.2109 165.16 74.1289C165.16 75.0273 164.867 75.7891 164.281 76.4141C163.715 77.0391 162.885 77.3516 161.791 77.3516C160.697 77.3516 159.857 77.0391 159.271 76.4141C158.705 75.7891 158.422 75.0273 158.422 74.1289ZM0.21875 109.129C0.21875 108.211 0.501953 107.439 1.06836 106.814C1.6543 106.17 2.49414 105.848 3.58789 105.848C4.68164 105.848 5.51172 106.17 6.07812 106.814C6.66406 107.439 6.95703 108.211 6.95703 109.129C6.95703 110.027 6.66406 110.789 6.07812 111.414C5.51172 112.039 4.68164 112.352 3.58789 112.352C2.49414 112.352 1.6543 112.039 1.06836 111.414C0.501953 110.789 0.21875 110.027 0.21875 109.129ZM16.0391 109.129C16.0391 108.211 16.3223 107.439 16.8887 106.814C17.4746 106.17 18.3145 105.848 19.4082 105.848C20.502 105.848 21.332 106.17 21.8984 106.814C22.4844 107.439 22.7773 108.211 22.7773 109.129C22.7773 110.027 22.4844 110.789 21.8984 111.414C21.332 112.039 20.502 112.352 19.4082 112.352C18.3145 112.352 17.4746 112.039 16.8887 111.414C16.3223 110.789 16.0391 110.027 16.0391 109.129ZM31.8594 109.129C31.8594 108.211 32.1426 107.439 32.709 106.814C33.2949 106.17 34.1348 105.848 35.2285 105.848C36.3223 105.848 37.1523 106.17 37.7188 106.814C38.3047 107.439 38.5977 108.211 38.5977 109.129C38.5977 110.027 38.3047 110.789 37.7188 111.414C37.1523 112.039 36.3223 112.352 35.2285 112.352C34.1348 112.352 33.2949 112.039 32.709 111.414C32.1426 110.789 31.8594 110.027 31.8594 109.129ZM47.6797 109.129C47.6797 108.211 47.9629 107.439 48.5293 106.814C49.1152 106.17 49.9551 105.848 51.0488 105.848C52.1426 105.848 52.9727 106.17 53.5391 106.814C54.125 107.439 54.418 108.211 54.418 109.129C54.418 110.027 54.125 110.789 53.5391 111.414C52.9727 112.039 52.1426 112.352 51.0488 112.352C49.9551 112.352 49.1152 112.039 48.5293 111.414C47.9629 110.789 47.6797 110.027 47.6797 109.129ZM63.5 109.129C63.5 108.211 63.7832 107.439 64.3496 106.814C64.9355 106.17 65.7754 105.848 66.8691 105.848C67.9629 105.848 68.793 106.17 69.3594 106.814C69.9453 107.439 70.2383 108.211 70.2383 109.129C70.2383 110.027 69.9453 110.789 69.3594 111.414C68.793 112.039 67.9629 112.352 66.8691 112.352C65.7754 112.352 64.9355 112.039 64.3496 111.414C63.7832 110.789 63.5 110.027 63.5 109.129ZM79.3203 109.129C79.3203 108.211 79.6035 107.439 80.1699 106.814C80.7559 106.17 81.5957 105.848 82.6895 105.848C83.7832 105.848 84.6133 106.17 85.1797 106.814C85.7656 107.439 86.0586 108.211 86.0586 109.129C86.0586 110.027 85.7656 110.789 85.1797 111.414C84.6133 112.039 83.7832 112.352 82.6895 112.352C81.5957 112.352 80.7559 112.039 80.1699 111.414C79.6035 110.789 79.3203 110.027 79.3203 109.129ZM95.1406 109.129C95.1406 108.211 95.4238 107.439 95.9902 106.814C96.5762 106.17 97.416 105.848 98.5098 105.848C99.6035 105.848 100.434 106.17 101 106.814C101.586 107.439 101.879 108.211 101.879 109.129C101.879 110.027 101.586 110.789 101 111.414C100.434 112.039 99.6035 112.352 98.5098 112.352C97.416 112.352 96.5762 112.039 95.9902 111.414C95.4238 110.789 95.1406 110.027 95.1406 109.129ZM110.961 109.129C110.961 108.211 111.244 107.439 111.811 106.814C112.396 106.17 113.236 105.848 114.33 105.848C115.424 105.848 116.254 106.17 116.82 106.814C117.406 107.439 117.699 108.211 117.699 109.129C117.699 110.027 117.406 110.789 116.82 111.414C116.254 112.039 115.424 112.352 114.33 112.352C113.236 112.352 112.396 112.039 111.811 111.414C111.244 110.789 110.961 110.027 110.961 109.129ZM126.781 109.129C126.781 108.211 127.064 107.439 127.631 106.814C128.217 106.17 129.057 105.848 130.15 105.848C131.244 105.848 132.074 106.17 132.641 106.814C133.227 107.439 133.52 108.211 133.52 109.129C133.52 110.027 133.227 110.789 132.641 111.414C132.074 112.039 131.244 112.352 130.15 112.352C129.057 112.352 128.217 112.039 127.631 111.414C127.064 110.789 126.781 110.027 126.781 109.129ZM142.602 109.129C142.602 108.211 142.885 107.439 143.451 106.814C144.037 106.17 144.877 105.848 145.971 105.848C147.064 105.848 147.895 106.17 148.461 106.814C149.047 107.439 149.34 108.211 149.34 109.129C149.34 110.027 149.047 110.789 148.461 111.414C147.895 112.039 147.064 112.352 145.971 112.352C144.877 112.352 144.037 112.039 143.451 111.414C142.885 110.789 142.602 110.027 142.602 109.129ZM158.422 109.129C158.422 108.211 158.705 107.439 159.271 106.814C159.857 106.17 160.697 105.848 161.791 105.848C162.885 105.848 163.715 106.17 164.281 106.814C164.867 107.439 165.16 108.211 165.16 109.129C165.16 110.027 164.867 110.789 164.281 111.414C163.715 112.039 162.885 112.352 161.791 112.352C160.697 112.352 159.857 112.039 159.271 111.414C158.705 110.789 158.422 110.027 158.422 109.129ZM0.21875 144.129C0.21875 143.211 0.501953 142.439 1.06836 141.814C1.6543 141.17 2.49414 140.848 3.58789 140.848C4.68164 140.848 5.51172 141.17 6.07812 141.814C6.66406 142.439 6.95703 143.211 6.95703 144.129C6.95703 145.027 6.66406 145.789 6.07812 146.414C5.51172 147.039 4.68164 147.352 3.58789 147.352C2.49414 147.352 1.6543 147.039 1.06836 146.414C0.501953 145.789 0.21875 145.027 0.21875 144.129ZM16.0391 144.129C16.0391 143.211 16.3223 142.439 16.8887 141.814C17.4746 141.17 18.3145 140.848 19.4082 140.848C20.502 140.848 21.332 141.17 21.8984 141.814C22.4844 142.439 22.7773 143.211 22.7773 144.129C22.7773 145.027 22.4844 145.789 21.8984 146.414C21.332 147.039 20.502 147.352 19.4082 147.352C18.3145 147.352 17.4746 147.039 16.8887 146.414C16.3223 145.789 16.0391 145.027 16.0391 144.129ZM31.8594 144.129C31.8594 143.211 32.1426 142.439 32.709 141.814C33.2949 141.17 34.1348 140.848 35.2285 140.848C36.3223 140.848 37.1523 141.17 37.7188 141.814C38.3047 142.439 38.5977 143.211 38.5977 144.129C38.5977 145.027 38.3047 145.789 37.7188 146.414C37.1523 147.039 36.3223 147.352 35.2285 147.352C34.1348 147.352 33.2949 147.039 32.709 146.414C32.1426 145.789 31.8594 145.027 31.8594 144.129ZM47.6797 144.129C47.6797 143.211 47.9629 142.439 48.5293 141.814C49.1152 141.17 49.9551 140.848 51.0488 140.848C52.1426 140.848 52.9727 141.17 53.5391 141.814C54.125 142.439 54.418 143.211 54.418 144.129C54.418 145.027 54.125 145.789 53.5391 146.414C52.9727 147.039 52.1426 147.352 51.0488 147.352C49.9551 147.352 49.1152 147.039 48.5293 146.414C47.9629 145.789 47.6797 145.027 47.6797 144.129ZM63.5 144.129C63.5 143.211 63.7832 142.439 64.3496 141.814C64.9355 141.17 65.7754 140.848 66.8691 140.848C67.9629 140.848 68.793 141.17 69.3594 141.814C69.9453 142.439 70.2383 143.211 70.2383 144.129C70.2383 145.027 69.9453 145.789 69.3594 146.414C68.793 147.039 67.9629 147.352 66.8691 147.352C65.7754 147.352 64.9355 147.039 64.3496 146.414C63.7832 145.789 63.5 145.027 63.5 144.129ZM79.3203 144.129C79.3203 143.211 79.6035 142.439 80.1699 141.814C80.7559 141.17 81.5957 140.848 82.6895 140.848C83.7832 140.848 84.6133 141.17 85.1797 141.814C85.7656 142.439 86.0586 143.211 86.0586 144.129C86.0586 145.027 85.7656 145.789 85.1797 146.414C84.6133 147.039 83.7832 147.352 82.6895 147.352C81.5957 147.352 80.7559 147.039 80.1699 146.414C79.6035 145.789 79.3203 145.027 79.3203 144.129ZM95.1406 144.129C95.1406 143.211 95.4238 142.439 95.9902 141.814C96.5762 141.17 97.416 140.848 98.5098 140.848C99.6035 140.848 100.434 141.17 101 141.814C101.586 142.439 101.879 143.211 101.879 144.129C101.879 145.027 101.586 145.789 101 146.414C100.434 147.039 99.6035 147.352 98.5098 147.352C97.416 147.352 96.5762 147.039 95.9902 146.414C95.4238 145.789 95.1406 145.027 95.1406 144.129ZM110.961 144.129C110.961 143.211 111.244 142.439 111.811 141.814C112.396 141.17 113.236 140.848 114.33 140.848C115.424 140.848 116.254 141.17 116.82 141.814C117.406 142.439 117.699 143.211 117.699 144.129C117.699 145.027 117.406 145.789 116.82 146.414C116.254 147.039 115.424 147.352 114.33 147.352C113.236 147.352 112.396 147.039 111.811 146.414C111.244 145.789 110.961 145.027 110.961 144.129ZM126.781 144.129C126.781 143.211 127.064 142.439 127.631 141.814C128.217 141.17 129.057 140.848 130.15 140.848C131.244 140.848 132.074 141.17 132.641 141.814C133.227 142.439 133.52 143.211 133.52 144.129C133.52 145.027 133.227 145.789 132.641 146.414C132.074 147.039 131.244 147.352 130.15 147.352C129.057 147.352 128.217 147.039 127.631 146.414C127.064 145.789 126.781 145.027 126.781 144.129ZM142.602 144.129C142.602 143.211 142.885 142.439 143.451 141.814C144.037 141.17 144.877 140.848 145.971 140.848C147.064 140.848 147.895 141.17 148.461 141.814C149.047 142.439 149.34 143.211 149.34 144.129C149.34 145.027 149.047 145.789 148.461 146.414C147.895 147.039 147.064 147.352 145.971 147.352C144.877 147.352 144.037 147.039 143.451 146.414C142.885 145.789 142.602 145.027 142.602 144.129ZM158.422 144.129C158.422 143.211 158.705 142.439 159.271 141.814C159.857 141.17 160.697 140.848 161.791 140.848C162.885 140.848 163.715 141.17 164.281 141.814C164.867 142.439 165.16 143.211 165.16 144.129C165.16 145.027 164.867 145.789 164.281 146.414C163.715 147.039 162.885 147.352 161.791 147.352C160.697 147.352 159.857 147.039 159.271 146.414C158.705 145.789 158.422 145.027 158.422 144.129Z" fill="#8253EA"/>
</svg>
